<?xml version="1.0" encoding="UTF-8"?>
<svg version="1.1" xmlns="http://www.w3.org/2000/svg" width="278" height="278">
<path d="M0 0 C0.65871094 0.18191895 1.31742188 0.36383789 1.99609375 0.55126953 C21.54225884 6.05231549 38.54714167 15.96087316 54 29 C55.21623047 30.01320313 55.21623047 30.01320313 56.45703125 31.046875 C76.74385475 48.55424394 90.89228594 72.26365359 98 98 C98.29414795 99.01513672 98.29414795 99.01513672 98.59423828 100.05078125 C104.86724061 122.49612729 104.47167711 149.66553503 98 172 C97.81808105 172.65871094 97.63616211 173.31742188 97.44873047 173.99609375 C91.94768451 193.54225884 82.03912684 210.54714167 69 226 C68.32453125 226.81082031 67.6490625 227.62164062 66.953125 228.45703125 C49.44575606 248.74385475 25.73634641 262.89228594 0 270 C-1.01513672 270.29414795 -1.01513672 270.29414795 -2.05078125 270.59423828 C-24.49612729 276.86724061 -51.66553503 276.47167711 -74 270 C-74.65871094 269.81808105 -75.31742187 269.63616211 -75.99609375 269.44873047 C-95.54225884 263.94768451 -112.54714167 254.03912684 -128 241 C-128.81082031 240.32453125 -129.62164062 239.6490625 -130.45703125 238.953125 C-150.74385475 221.44575606 -164.89228594 197.73634641 -172 172 C-172.29414795 170.98486328 -172.29414795 170.98486328 -172.59423828 169.94921875 C-178.86724061 147.50387271 -178.47167711 120.33446497 -172 98 C-171.81808105 97.34128906 -171.63616211 96.68257813 -171.44873047 96.00390625 C-165.94768451 76.45774116 -156.03912684 59.45285833 -143 44 C-141.98679687 42.78376953 -141.98679687 42.78376953 -140.953125 41.54296875 C-123.44575606 21.25614525 -99.73634641 7.10771406 -74 0 C-73.32324219 -0.19609863 -72.64648438 -0.39219727 -71.94921875 -0.59423828 C-49.50387271 -6.86724061 -22.33446497 -6.47167711 0 0 Z " fill="#A37BF5" transform="translate(176,4)"/>
<path d="M0 0 C1.11794025 0.94027064 2.23333095 1.88357305 3.34765625 2.828125 C3.96906494 3.3530957 4.59047363 3.87806641 5.23071289 4.41894531 C7.46761676 6.41786755 9.29001969 8.53762836 11 11 C11 11.66 11 12.32 11 13 C11.66 13 12.32 13 13 13 C22.77644085 24.20865829 28.17559867 39.89461694 32 54 C32.24621094 54.87527344 32.49242187 55.75054687 32.74609375 56.65234375 C34.13787775 62.11389614 34.21101346 67.38469726 34 73 C34.66 73 35.32 73 36 73 C35.97462158 72.39341553 35.94924316 71.78683105 35.9230957 71.16186523 C35.77322555 64.79574835 36.55932567 59.20360738 38.1875 53.0625 C38.41381104 52.18859619 38.64012207 51.31469238 38.87329102 50.41430664 C40.61785895 43.91644067 42.81824159 37.941838 46 32 C46.42796875 31.13890625 46.8559375 30.2778125 47.296875 29.390625 C52.88050783 18.53704659 59.96634457 8.24812018 69 0 C74.96118297 4.93997261 80.41486302 10.28529862 85.87109375 15.7734375 C87.25458763 17.1590538 87.25458763 17.1590538 88.66603088 18.57266235 C91.09633814 21.00675431 93.52362496 23.44383597 95.95025635 25.8815918 C98.43569364 28.3773311 100.92402932 30.87017708 103.41210938 33.36328125 C108.27755096 38.2393886 113.13980198 43.11866631 118 48 C117.06299423 49.11484185 116.1228402 50.22703806 115.18139648 51.33813477 C114.39659157 52.26759666 114.39659157 52.26759666 113.59593201 53.21583557 C99.37244389 69.11691497 73.19430205 80.35546481 52.27734375 82.24609375 C50.0625 82.25 50.0625 82.25 47 82 C47 82.66 47 83.32 47 84 C48.010625 83.9175 49.02125 83.835 50.0625 83.75 C71.71820546 83.78819348 96.15476475 96.86084661 112 111 C113.98 113.31 115.96 115.62 118 118 C102.16 133.84 86.32 149.68 70 166 C50.43091633 149.22649971 37.77079166 122.52599469 35.1875 96.875 C35.125625 95.59625 35.06375 94.3175 35 93 C34.90203125 93.825 34.8040625 94.65 34.703125 95.5 C31.39314324 121.06675563 22.06807373 145.82878864 3 164 C2.01 164.66 1.02 165.32 0 166 C-15.84 150.16 -31.68 134.32 -48 118 C-31.99395311 99.32627863 -6.2243136 85.92729295 18.44140625 83.6875 C21.1875 83.6875 21.1875 83.6875 25 84 C25 83.34 25 82.68 25 82 C23.700625 82.0825 22.40125 82.165 21.0625 82.25 C-1.59236149 82.15414022 -25.28811005 69.41810114 -42 55 C-44.07916105 52.72919454 -46.05959952 50.39001583 -48 48 C-32 32 -16 16 0 0 Z " fill="#FEFCFE" transform="translate(104,56)"/>
<path d="M0 0 C0.99 0.495 0.99 0.495 2 1 C2.6328125 3.9140625 2.6328125 3.9140625 3.125 7.625 C3.29257813 8.83414063 3.46015625 10.04328125 3.6328125 11.2890625 C3.98893491 14.88817199 4.06503031 18.38617267 4 22 C2.515 22.495 2.515 22.495 1 23 C0.505 22.01 0.505 22.01 0 21 C-1.29243536 25.1196377 -2.26252625 28.66831683 -2 33 C-2.66 33 -3.32 33 -4 33 C-5.08237565 35.62862657 -6.06277308 38.21073821 -6.875 40.9375 C-8.14310978 44.38957662 -9.89093366 46.99617824 -12 50 C-12.45246094 50.77085937 -12.90492187 51.54171875 -13.37109375 52.3359375 C-15.7408586 56.21166803 -18.51722236 59.75992183 -21.2578125 63.37890625 C-23.09211451 65.8156952 -23.09211451 65.8156952 -23.5546875 68.27734375 C-23.70164063 68.84582031 -23.84859375 69.41429687 -24 70 C-24.99 70.33 -25.98 70.66 -27 71 C-27.28875 71.639375 -27.5775 72.27875 -27.875 72.9375 C-29.39098648 75.71680854 -31.05867273 76.07115981 -34 77 C-34.33 76.01 -34.66 75.02 -35 74 C-37.01508358 73.26676204 -37.01508358 73.26676204 -39 73 C-39.33 71.68 -39.66 70.36 -40 69 C-40.66 69 -41.32 69 -42 69 C-43.375 67.56640625 -43.375 67.56640625 -45 65.5625 C-48.66189675 61.21932013 -52.74745993 57.57072727 -57.05859375 53.8828125 C-57.69925781 53.26148438 -58.33992188 52.64015625 -59 52 C-59 51.34 -59 50.68 -59 50 C-59.66 50 -60.32 50 -61 50 C-61 49.34 -61 48.68 -61 48 C-61.66 48 -62.32 48 -63 48 C-64.62109375 46.3203125 -64.62109375 46.3203125 -66.4375 44.125 C-68.58400884 41.53806278 -70.16776562 39.88815626 -73 38 C-73 37.34 -73 36.68 -73 36 C-69.86261846 37.39080525 -67.74524719 39.01022204 -65.33300781 41.43994141 C-64.63258362 42.14051666 -63.93215942 42.84109192 -63.21051025 43.56289673 C-62.46557312 44.31815643 -61.72063599 45.07341614 -60.953125 45.8515625 C-60.18192322 46.62559418 -59.41072144 47.39962585 -58.6161499 48.19711304 C-56.15603144 50.66841923 -53.70296152 53.14659183 -51.25 55.625 C-49.58249106 57.30254052 -47.91452768 58.97962945 -46.24609375 60.65625 C-42.1587763 64.76560919 -38.07722304 68.88062647 -34 73 C-32.87615034 72.05448326 -31.75480697 71.10598702 -30.63452148 70.15625 C-30.00980453 69.62837891 -29.38508759 69.10050781 -28.74143982 68.55664062 C-20.9506104 61.59256329 -15.89070032 51.12790189 -11 42 C-10.525625 41.13117188 -10.05125 40.26234375 -9.5625 39.3671875 C-3.67167574 27.62235663 -0.33079596 13.11154885 0 0 Z " fill="#8A5EDD" transform="translate(138,148)"/>
<path d="M0 0 C2.9375 0.8125 2.9375 0.8125 6 2 C6.495 3.485 6.495 3.485 7 5 C7.99 5.33 8.98 5.66 10 6 C10.495 6.99 10.495 6.99 11 8 C11.99 8.33 12.98 8.66 14 9 C14.79953138 12.28696233 15.09658936 13.71023192 14 17 C12.56775409 18.1990896 11.13130866 19.393748 9.66796875 20.5546875 C7.94573443 22.04702169 6.56705828 23.61292331 5.125 25.375 C2.31653958 28.77471524 -0.83609924 31.53101807 -4.19140625 34.37890625 C-6.42091908 36.37728168 -8.13938651 38.65922819 -10 41 C-11.72512305 42.56261146 -13.50052836 44.05276793 -15.28515625 45.546875 C-18.50871057 48.27845179 -21.36974672 51.27163037 -24.1328125 54.46484375 C-24.91398437 55.36332031 -25.69515625 56.26179688 -26.5 57.1875 C-27.2321875 58.04730469 -27.964375 58.90710938 -28.71875 59.79296875 C-31.07734855 62.07483207 -32.89783435 63.0223809 -36 64 C-43.125 58.375 -43.125 58.375 -44 54 C-43.52949219 54.433125 -43.05898437 54.86625 -42.57421875 55.3125 C-41.95160156 55.869375 -41.32898438 56.42625 -40.6875 57 C-40.07261719 57.556875 -39.45773438 58.11375 -38.82421875 58.6875 C-36.96868665 60.29201498 -36.96868665 60.29201498 -34 60 C-31.76653416 58.2065669 -31.76653416 58.2065669 -29.43676758 55.77734375 C-28.51603958 54.85638916 -27.59531158 53.93543457 -26.64668274 52.98657227 C-25.64580472 51.97037325 -24.64509144 50.95401196 -23.64453125 49.9375 C-22.61814256 48.90551679 -21.59109 47.87419345 -20.56340027 46.84350586 C-17.85897348 44.12761904 -15.16367569 41.40284399 -12.47015381 38.67614746 C-9.72056486 35.89588266 -6.96247467 33.12408024 -4.20507812 30.3515625 C1.20499126 24.90930852 6.60544854 19.45764089 12 14 C11.07392833 12.88890338 10.14334305 11.781568 9.2109375 10.67578125 C8.69321777 10.05872314 8.17549805 9.44166504 7.64208984 8.8059082 C6.06794326 7.07472142 4.45341189 5.64195542 2.625 4.1875 C1.75875 3.465625 0.8925 2.74375 0 2 C0 1.34 0 0.68 0 0 Z " fill="#7255DD" transform="translate(209,160)"/>
<path d="M0 0 C0.66 0.33 1.32 0.66 2 1 C-2.22948983 5.27880227 -6.46541185 9.55108979 -10.70751953 13.81738281 C-12.15072972 15.27067173 -13.59214264 16.7257477 -15.03173828 18.18261719 C-17.09722341 20.27226835 -19.16901486 22.35547908 -21.2421875 24.4375 C-21.88807831 25.09371338 -22.53396912 25.74992676 -23.19943237 26.42602539 C-23.79990387 27.02664795 -24.40037537 27.62727051 -25.01904297 28.24609375 C-25.54754852 28.77904053 -26.07605408 29.3119873 -26.62057495 29.86108398 C-28 31 -28 31 -30 31 C-30.20367187 31.53109375 -30.40734375 32.0621875 -30.6171875 32.609375 C-32.59505609 36.02874104 -35.30326899 38.51337921 -38.125 41.25 C-38.96998047 42.08144531 -38.96998047 42.08144531 -39.83203125 42.9296875 C-41.21686028 44.29104485 -42.60783204 45.64614859 -44 47 C-43.06409496 48.1055189 -42.12620142 49.20935453 -41.1875 50.3125 C-40.66542969 50.92738281 -40.14335938 51.54226562 -39.60546875 52.17578125 C-38.12827531 53.85424679 -36.59960869 55.43882034 -35 57 C-35.99 57.66 -36.98 58.32 -38 59 C-38.66 58.34 -39.32 57.68 -40 57 C-40 56.01 -40 55.02 -40 54 C-41.32 53.67 -42.64 53.34 -44 53 C-44 52.34 -44 51.68 -44 51 C-44.66 51 -45.32 51 -46 51 C-46.79953138 47.71303767 -47.09658936 46.28976808 -46 43 C-44.2635257 41.84235047 -42.46512838 40.98285002 -40.59375 40.0625 C-38.66242402 39.01050642 -38.66242402 39.01050642 -38 36 C-36.515 35.505 -36.515 35.505 -35 35 C-33.6578906 33.16986792 -33.6578906 33.16986792 -32.5 31 C-30.33333333 27.11111111 -30.33333333 27.11111111 -27 26 C-26.34 25.34 -25.68 24.68 -25 24 C-24.071875 23.29875 -23.14375 22.5975 -22.1875 21.875 C-18.97991971 19.26199556 -17.14697444 16.27556838 -15.17578125 12.671875 C-14 11 -14 11 -11 10 C-10.34 9.34 -9.68 8.68 -9 8 C-7.23088323 6.46454016 -5.44333922 4.95198239 -3.65625 3.4375 C-2.3929143 2.34101995 -1.18285367 1.18285367 0 0 Z " fill="#D0BCEB" transform="translate(101,57)"/>
<path d="M0 0 C0.495 1.485 0.495 1.485 1 3 C0.01 3.33 -0.98 3.66 -2 4 C-2.33 4.99 -2.66 5.98 -3 7 C-5 7.66666667 -7 8.33333333 -9 9 C-9.33 9.99 -9.66 10.98 -10 12 C-12.26446116 14.83057645 -14.65469026 15.74550885 -18 17 C-18.99 17.66 -19.98 18.32 -21 19 C-22.32415166 19.68472229 -23.65812182 20.3507041 -25 21 C-30.38608768 23.62137539 -30.38608768 23.62137539 -35.5625 26.625 C-38.5931206 28.33458085 -41.64002372 29.14353546 -45 30 C-45 28.68 -45 27.36 -45 26 C-44.2471875 25.74347656 -43.494375 25.48695313 -42.71875 25.22265625 C-28.18921352 19.98567526 -14.07591006 12.56477641 -3.33203125 1.2421875 C-2 0 -2 0 0 0 Z " fill="#895CE3" transform="translate(222,106)"/>
<path d="M0 0 C0 0.66 0 1.32 0 2 C-3.06246747 3.78409802 -5.22079273 4.22880021 -8.75 4.125 C-9.54921875 4.10695312 -10.3484375 4.08890625 -11.171875 4.0703125 C-11.77515625 4.04710937 -12.3784375 4.02390625 -13 4 C-13 4.66 -13 5.32 -13 6 C-12.24074219 6.03738281 -11.48148438 6.07476562 -10.69921875 6.11328125 C-9.70535156 6.17902344 -8.71148437 6.24476563 -7.6875 6.3125 C-6.70136719 6.37050781 -5.71523437 6.42851562 -4.69921875 6.48828125 C-1.75615543 7.04622813 -0.81817001 7.68540132 1 10 C-7.75861562 9.20376222 -16.35560508 7.57802387 -25 6 C-25 5.34 -25 4.68 -25 4 C-23.89140625 3.79503906 -22.7828125 3.59007812 -21.640625 3.37890625 C-20.17707133 3.10683538 -18.71353033 2.83469638 -17.25 2.5625 C-16.52039063 2.42779297 -15.79078125 2.29308594 -15.0390625 2.15429688 C-10.96261221 1.40320508 -10.96261221 1.40320508 -6.92871094 0.45678711 C-4.58153643 -0.099107 -2.40316416 -0.06675456 0 0 Z " fill="#8F64CE" transform="translate(176,134)"/>
<path d="M0 0 C0.66 0 1.32 0 2 0 C2.268125 0.90878906 2.53625 1.81757813 2.8125 2.75390625 C7.37037915 17.96158252 7.37037915 17.96158252 16 31 C16.04063832 32.66617115 16.042721 34.33388095 16 36 C13 32.25 13 32.25 13 30 C12.01 30 11.02 30 10 30 C9.67 27.36 9.34 24.72 9 22 C7.68 22 6.36 22 5 22 C5.04125 21.071875 5.0825 20.14375 5.125 19.1875 C5.27136339 15.84190281 5.27136339 15.84190281 3 13 C3 12.01 3 11.02 3 10 C2.34 10 1.68 10 1 10 C0.855625 9.236875 0.71125 8.47375 0.5625 7.6875 C0.0367406 4.91827092 0.0367406 4.91827092 -1 2 C-0.67 1.34 -0.34 0.68 0 0 Z " fill="#7E59DD" transform="translate(142,171)"/>
<path d="M0 0 C3.04581486 1.36113013 5.13839026 2.89330096 7.48339844 5.25634766 C8.14378113 5.91688141 8.80416382 6.57741516 9.48455811 7.25796509 C10.18574768 7.96947723 10.88693726 8.68098938 11.609375 9.4140625 C12.33618469 10.14370209 13.06299438 10.87334167 13.81182861 11.62509155 C16.12929198 13.9537388 18.4396995 16.28924826 20.75 18.625 C22.32115444 20.20618653 23.89276371 21.78692125 25.46484375 23.3671875 C29.31518653 27.2395669 33.15976117 31.11760171 37 35 C36.01 35.495 36.01 35.495 35 36 C34.01 35.505 34.01 35.505 33 35 C33 34.34 33 33.68 33 33 C32.34 33 31.68 33 31 33 C29.625 31.56640625 29.625 31.56640625 28 29.5625 C24.33810325 25.21932013 20.25254007 21.57072727 15.94140625 17.8828125 C15.30074219 17.26148438 14.66007812 16.64015625 14 16 C14 15.34 14 14.68 14 14 C13.34 14 12.68 14 12 14 C12 13.34 12 12.68 12 12 C11.34 12 10.68 12 10 12 C8.37890625 10.3203125 8.37890625 10.3203125 6.5625 8.125 C4.41599116 5.53806278 2.83223438 3.88815626 0 2 C0 1.34 0 0.68 0 0 Z " fill="#9468DB" transform="translate(65,184)"/>
<path d="M0 0 C5.20833333 0.52083333 10.41666667 1.04166667 15.625 1.5625 C16.46289062 1.64628906 17.30078125 1.73007813 18.1640625 1.81640625 C18.76992187 1.87699219 19.37578125 1.93757812 20 2 C20 2.66 20 3.32 20 4 C18.49759766 4.18175781 18.49759766 4.18175781 16.96484375 4.3671875 C15.6223597 4.53617151 14.27991377 4.70545858 12.9375 4.875 C11.95233398 4.99294922 11.95233398 4.99294922 10.94726562 5.11328125 C6.47711655 5.68581266 2.33618159 6.73703449 -2 8 C-5.4375 8.125 -5.4375 8.125 -8 8 C-8 7.01 -8 6.02 -8 5 C-3.38 4.67 1.24 4.34 6 4 C6 3.34 6 2.68 6 2 C4.35 2 2.7 2 1 2 C0.67 1.34 0.34 0.68 0 0 Z " fill="#A277DA" transform="translate(109,136)"/>
<path d="M0 0 C0.33 0.66 0.66 1.32 1 2 C1.99 2.33 2.98 2.66 4 3 C6.88476489 5.65086503 9.43318483 8.49744411 11.9375 11.5 C13.93023993 13.87576008 15.95112817 15.87910577 18.375 17.8125 C19.24125 18.534375 20.1075 19.25625 21 20 C21 20.66 21 21.32 21 22 C21.99 22 22.98 22 24 22 C24.33 22.99 24.66 23.98 25 25 C26.49985609 26.66710346 26.49985609 26.66710346 28 28 C27.67 28.66 27.34 29.32 27 30 C23.14524065 26.21928302 19.30035189 22.42890346 15.46435547 18.62915039 C14.1574677 17.33736833 12.84790271 16.04828905 11.53564453 14.76196289 C9.652104 12.91472642 7.77834065 11.05804923 5.90625 9.19921875 C5.31565796 8.62411057 4.72506592 8.04900238 4.11657715 7.45646667 C2.68631427 6.02680333 1.33527618 4.51875828 0 3 C0 2.01 0 1.02 0 0 Z " fill="#9866E5" transform="translate(195,75)"/>
<path d="M0 0 C0.66 0 1.32 0 2 0 C2.33 1.98 2.66 3.96 3 6 C3.66 6 4.32 6 5 6 C5 6.66 5 7.32 5 8 C5.66 8.33 6.32 8.66 7 9 C6.34 9 5.68 9 5 9 C5.33 10.65 5.66 12.3 6 14 C6.33 12.68 6.66 11.36 7 10 C7.66 10 8.32 10 9 10 C8.34 15.94 7.68 21.88 7 28 C6.34 28 5.68 28 5 28 C4.89042969 27.06800781 4.78085938 26.13601562 4.66796875 25.17578125 C3.60529339 16.63118019 2.1148842 8.3608422 0 0 Z " fill="#A87AE4" transform="translate(133,101)"/>
<path d="M0 0 C0.66 0.33 1.32 0.66 2 1 C2.41064453 2.76586914 2.41064453 2.76586914 2.6328125 5.03515625 C2.71660156 5.84404297 2.80039063 6.65292969 2.88671875 7.48632812 C2.96535156 8.33646484 3.04398438 9.18660156 3.125 10.0625 C3.21136719 10.91650391 3.29773438 11.77050781 3.38671875 12.65039062 C3.59947228 14.76610633 3.80079953 16.88296524 4 19 C3.34 19 2.68 19 2 19 C1.67 18.34 1.34 17.68 1 17 C0.67 17.66 0.34 18.32 0 19 C-0.66 19 -1.32 19 -2 19 C-1.34 12.73 -0.68 6.46 0 0 Z " fill="#956BD8" transform="translate(138,148)"/>
<path d="M0 0 C0.66 0 1.32 0 2 0 C2.433125 0.9590625 2.433125 0.9590625 2.875 1.9375 C3.82823451 4.15206079 3.82823451 4.15206079 6 5 C7.0703125 6.99609375 7.0703125 6.99609375 8.125 9.4375 C8.65480469 10.64212891 8.65480469 10.64212891 9.1953125 11.87109375 C10 14 10 14 10 16 C11.32 16.33 12.64 16.66 14 17 C14 18.98 14 20.96 14 23 C13.34 23 12.68 23 12 23 C11.72027344 22.40574219 11.44054687 21.81148437 11.15234375 21.19921875 C8.27650736 15.25335766 5.01724981 9.7465754 1.35546875 4.25 C0 2 0 2 0 0 Z " fill="#BA98EC" transform="translate(117,69)"/>
<path d="M0 0 C0.99 0.33 1.98 0.66 3 1 C2.76667969 1.58523437 2.53335938 2.17046875 2.29296875 2.7734375 C1.72808608 5.07853708 1.72808608 5.07853708 3.36328125 6.8515625 C4.00652344 7.43679687 4.64976563 8.02203125 5.3125 8.625 C5.94800781 9.21539062 6.58351563 9.80578125 7.23828125 10.4140625 C8.11033203 11.19910156 8.11033203 11.19910156 9 12 C9.66 12.66 10.32 13.32 11 14 C10.01 14.66 9.02 15.32 8 16 C7.34 15.34 6.68 14.68 6 14 C6 13.01 6 12.02 6 11 C4.68 10.67 3.36 10.34 2 10 C2 9.34 2 8.68 2 8 C1.34 8 0.68 8 0 8 C-0.79953138 4.71303767 -1.09658936 3.28976808 0 0 Z " fill="#CBAFE8" transform="translate(55,100)"/>
<path d="M0 0 C0.268125 0.61875 0.53625 1.2375 0.8125 1.875 C1.95556848 4.2995233 1.95556848 4.2995233 5 6 C5 6.66 5 7.32 5 8 C6.65 8.33 8.3 8.66 10 9 C10.33 11.31 10.66 13.62 11 16 C10.34 16 9.68 16 9 16 C7.4140625 14.13671875 7.4140625 14.13671875 5.625 11.6875 C3.31247101 8.52432709 1.1626929 6.29463464 -2 4 C-2.33 3.34 -2.66 2.68 -3 2 C-2.01 2 -1.02 2 0 2 C0 1.34 0 0.68 0 0 Z " fill="#C9B0EB" transform="translate(106,53)"/>
<path d="M0 0 C0.66 0 1.32 0 2 0 C3.65 5.28 5.3 10.56 7 16 C6.34 16 5.68 16 5 16 C3 13 3 13 3 10 C2.34 10 1.68 10 1 10 C0.855625 9.236875 0.71125 8.47375 0.5625 7.6875 C0.0367406 4.91827092 0.0367406 4.91827092 -1 2 C-0.67 1.34 -0.34 0.68 0 0 Z " fill="#8E62E0" transform="translate(142,171)"/>
<path d="M0 0 C0 0.66 0 1.32 0 2 C-3.06246747 3.78409802 -5.22079273 4.22880021 -8.75 4.125 C-9.54921875 4.10695312 -10.3484375 4.08890625 -11.171875 4.0703125 C-11.77515625 4.04710937 -12.3784375 4.02390625 -13 4 C-13 4.66 -13 5.32 -13 6 C-13.66 6 -14.32 6 -15 6 C-15 5.01 -15 4.02 -15 3 C-13.44033782 2.491217 -11.87710759 1.99336531 -10.3125 1.5 C-9.44238281 1.2215625 -8.57226562 0.943125 -7.67578125 0.65625 C-5.00608323 0.00149195 -2.73603316 -0.11831495 0 0 Z " fill="#8F5DE3" transform="translate(176,134)"/>
<path d="M0 0 C3.375 0.6875 3.375 0.6875 7 2 C8.4375 4.625 8.4375 4.625 9 7 C5.00544473 6.38545304 2.25533664 4.29353263 -1 2 C-0.67 1.34 -0.34 0.68 0 0 Z " fill="#7B57E1" transform="translate(199,153)"/>
<path d="M0 0 C0.86625 0.350625 1.7325 0.70125 2.625 1.0625 C6.24825242 2.068959 8.3853322 1.86063519 12 1 C9.63707344 3.52588702 8.33537489 4.88820837 5 6 C4.67 5.01 4.34 4.02 4 3 C1.98491642 2.26676204 1.98491642 2.26676204 0 2 C0 1.34 0 0.68 0 0 Z " fill="#8558E7" transform="translate(99,219)"/>
<path d="M0 0 C5.65253308 1.37031105 8.5113541 5.67689413 12 10 C11.67 10.66 11.34 11.32 11 12 C9.16364422 10.19047409 7.33083792 8.37759362 5.5 6.5625 C4.97535156 6.04623047 4.45070312 5.52996094 3.91015625 4.99804688 C2.58775448 3.68423213 1.29164432 2.34406495 0 1 C0 0.67 0 0.34 0 0 Z " fill="#A679E6" transform="translate(183,65)"/>
<path d="M0 0 C0 3.39593478 -0.52165948 4.06619881 -2.5 6.6875 C-2.9640625 7.31011719 -3.428125 7.93273437 -3.90625 8.57421875 C-4.2671875 9.04472656 -4.628125 9.51523438 -5 10 C-5.99 9.67 -6.98 9.34 -8 9 C-7.23587913 7.87043002 -6.46340197 6.74651022 -5.6875 5.625 C-5.25824219 4.99851563 -4.82898438 4.37203125 -4.38671875 3.7265625 C-3 2 -3 2 0 0 Z " fill="#8963DF" transform="translate(124,199)"/>
<path d="M0 0 C7.57142857 4.14285714 7.57142857 4.14285714 10 7 C9.34 7.66 8.68 8.32 8 9 C7.67 8.34 7.34 7.68 7 7 C6.01 6.67 5.02 6.34 4 6 C1.8125 4.0625 1.8125 4.0625 0 2 C0 1.34 0 0.68 0 0 Z " fill="#B89CE6" transform="translate(67,115)"/>
<path d="M0 0 C0.33 0.99 0.66 1.98 1 3 C1.66 3 2.32 3 3 3 C2 6 2 6 0 7 C-0.33 6.34 -0.66 5.68 -1 5 C-1.66 5.66 -2.32 6.32 -3 7 C-3 5.68 -3 4.36 -3 3 C-2.34 3 -1.68 3 -1 3 C-0.67 2.01 -0.34 1.02 0 0 Z " fill="#8E57EF" transform="translate(139,164)"/>
<path d="M0 0 C0.66 0 1.32 0 2 0 C1.67 1.32 1.34 2.64 1 4 C0.34 4 -0.32 4 -1 4 C-1 5.65 -1 7.3 -1 9 C-1.66 8.67 -2.32 8.34 -3 8 C-3 6.35 -3 4.7 -3 3 C-2.34 3 -1.68 3 -1 3 C-0.67 2.01 -0.34 1.02 0 0 Z " fill="#AE75FB" transform="translate(141,107)"/>
<path d="M0 0 C1.12894876 0.93274109 2.25300876 1.87140122 3.375 2.8125 C4.00148438 3.33457031 4.62796875 3.85664063 5.2734375 4.39453125 C7 6 7 6 9 9 C8.01 9.495 8.01 9.495 7 10 C3.60582235 6.87378374 1.3937282 4.43458973 0 0 Z " fill="#A67BDF" transform="translate(57,175)"/>
<path d="M0 0 C0.66 0.33 1.32 0.66 2 1 C-1.75 5.875 -1.75 5.875 -4 7 C-4.33 5.35 -4.66 3.7 -5 2 C-2.625 0.9375 -2.625 0.9375 0 0 Z " fill="#B389EB" transform="translate(59,168)"/>
<path d="M0 0 C2.8125 -0.1875 2.8125 -0.1875 6 0 C6.99 0.99 7.98 1.98 9 3 C6.03 2.67 3.06 2.34 0 2 C0 1.34 0 0.68 0 0 Z " fill="#8B5FE5" transform="translate(168,141)"/>
<path d="M0 0 C0.66 0.33 1.32 0.66 2 1 C1.67 1.66 1.34 2.32 1 3 C0.01 3.33 -0.98 3.66 -2 4 C-3.66710346 5.49985609 -3.66710346 5.49985609 -5 7 C-5.66 6.34 -6.32 5.68 -7 5 C-4.69 3.35 -2.38 1.7 0 0 Z " fill="#F7EDFD" transform="translate(74,158)"/>
<path d="M0 0 C1.4540625 0.0309375 1.4540625 0.0309375 2.9375 0.0625 C1.625 2.0625 1.625 2.0625 -0.0625 4.0625 C-1.0525 4.0625 -2.0425 4.0625 -3.0625 4.0625 C-3.3925 3.0725 -3.7225 2.0825 -4.0625 1.0625 C-3.0625 0.0625 -3.0625 0.0625 0 0 Z " fill="#B286EC" transform="translate(66.0625,160.9375)"/>
<path d="M0 0 C0.99 0.33 1.98 0.66 3 1 C1.68 2.32 0.36 3.64 -1 5 C-1.99 4.67 -2.98 4.34 -4 4 C-2.68 2.68 -1.36 1.36 0 0 Z " fill="#F8EEFC" transform="translate(64,165)"/>
<path d="M0 0 C2.97 0.495 2.97 0.495 6 1 C6 1.66 6 2.32 6 3 C6.99 3 7.98 3 9 3 C9 3.66 9 4.32 9 5 C5.22454612 3.90931332 2.52956528 3.0916909 0 0 Z " fill="#7F5AD5" transform="translate(189,149)"/>
</svg>
